<svg xmlns="http://www.w3.org/2000/svg" viewBox="0 0 620 190" role="img" aria-labelledby="title desc">
  <title id="title">BMOZI Technical wordmark</title>
  <desc id="desc">Compact BMOZI Technical wordmark with the geometric B mark.</desc>
  <defs>
    <linearGradient id="bmozi-blue" x1="30" y1="32" x2="222" y2="224" gradientUnits="userSpaceOnUse">
      <stop offset="0" stop-color="#2E73F1"/>
      <stop offset=".48" stop-color="#2AA9FF"/>
      <stop offset="1" stop-color="#19D6C5"/>
    </linearGradient>
    <linearGradient id="bmozi-magenta" x1="88" y1="118" x2="196" y2="172" gradientUnits="userSpaceOnUse">
      <stop offset="0" stop-color="#FF4FD8"/>
      <stop offset=".72" stop-color="#D7379A"/>
      <stop offset="1" stop-color="#19D6C5"/>
    </linearGradient>
  </defs>
  <rect width="620" height="190" fill="#071019"/>
  <g transform="translate(23 28) scale(.52)">
    <rect width="256" height="256" fill="#071019"/>
    <path d="M42 57H147C190 57 221 86 221 125C221 162 192 190 151 190H82" fill="none" stroke="url(#bmozi-blue)" stroke-width="25" stroke-linecap="square" stroke-linejoin="round"/>
    <path d="M51 110V216H151C196 216 224 187 224 151C224 116 195 91 154 91H82" fill="none" stroke="url(#bmozi-blue)" stroke-width="25" stroke-linecap="square" stroke-linejoin="round"/>
    <path d="M87 131H151C174 131 188 144 188 161C188 179 172 190 149 190H87" fill="none" stroke="url(#bmozi-magenta)" stroke-width="25" stroke-linecap="square" stroke-linejoin="round"/>
    <path d="M88 151H149C166 151 176 155 187 162" fill="none" stroke="#071019" stroke-width="23" stroke-linecap="round" opacity=".9"/>
  </g>
  <line x1="196" y1="31" x2="196" y2="159" stroke="#19D6C5" stroke-opacity=".72" stroke-width="3"/>
  <rect x="188" y="84" width="14" height="14" fill="#FF4FD8"/>
  <text x="238" y="84" fill="#F4F7F9" font-family="Arial" font-size="48" font-weight="800" letter-spacing="1">BMOZI</text>
  <text x="240" y="130" fill="#19D6C5" font-family="Courier" font-size="27" font-weight="700" letter-spacing="12">TECHNICAL</text>
</svg>
