<svg xmlns="http://www.w3.org/2000/svg" viewBox="0 0 256 256" role="img" aria-labelledby="title desc">
  <title id="title">BMOZI Technical mark</title>
  <desc id="desc">A crisp blue and magenta geometric B mark for BMOZI Technical.</desc>
  <defs>
    <linearGradient id="blue" x1="31" y1="30" x2="214" y2="210" gradientUnits="userSpaceOnUse">
      <stop offset="0" stop-color="#2D6DEB"/>
      <stop offset="0.55" stop-color="#28A8FF"/>
      <stop offset="1" stop-color="#19D6C5"/>
    </linearGradient>
    <linearGradient id="magenta" x1="88" y1="105" x2="202" y2="190" gradientUnits="userSpaceOnUse">
      <stop offset="0" stop-color="#FF4FD8"/>
      <stop offset="1" stop-color="#B445FF"/>
    </linearGradient>
    <filter id="softGlow" x="-20%" y="-20%" width="140%" height="140%">
      <feGaussianBlur stdDeviation="2.5" result="blur"/>
      <feColorMatrix in="blur" type="matrix" values="0 0 0 0 0.10 0 0 0 0 0.84 0 0 0 0 0.77 0 0 0 .45 0"/>
      <feMerge>
        <feMergeNode/>
        <feMergeNode in="SourceGraphic"/>
      </feMerge>
    </filter>
  </defs>
  <rect width="256" height="256" fill="#071019"/>
  <path d="M49 38H151C192 38 224 67 224 106C224 142 197 171 162 175L109 175V137H157C172 137 184 124 184 108C184 91 172 78 155 78H49V38Z" fill="url(#blue)" filter="url(#softGlow)"/>
  <path d="M49 78H91V178H150C166 178 180 164 180 148C180 132 166 119 150 119H102V81H151C192 81 224 111 224 149C224 188 191 218 150 218H49V78Z" fill="url(#blue)" opacity=".95"/>
  <path d="M91 121H149C164 121 176 133 176 148C176 164 164 176 149 176H91V121Z" fill="url(#magenta)"/>
  <path d="M49 78L91 78V218H49V78Z" fill="#2D6DEB"/>
  <path d="M91 147L129 119H150C165 119 176 132 176 148C176 164 164 176 149 176H91V147Z" fill="#071019" opacity=".74"/>
</svg>
