<svg xmlns="http://www.w3.org/2000/svg" viewBox="0 0 620 190" role="img" aria-labelledby="title desc">
  <title id="title">BMOZI Technical wordmark</title>
  <desc id="desc">BMOZI Technical wordmark with a custom angular B mark and restrained signal color.</desc>
  <rect width="620" height="190" fill="#0A0D11"/>
  <g transform="translate(22 29) scale(.515)">
    <rect width="256" height="256" fill="#0A0D11"/>
    <path
      fill="#F4F7F9"
      fill-rule="evenodd"
      d="M49 34H158L205 59V116L183 137L216 157V214L185 242H49L72 219V57L49 34ZM101 76V116H154L176 103V89L155 76H101ZM101 155V201H159L188 185V171L159 155H101Z"
    />
    <path fill="#FF4FD8" d="M73 128H141L128 143H73V128Z"/>
  </g>
  <line x1="196" y1="31" x2="196" y2="159" stroke="#FF4FD8" stroke-opacity=".8" stroke-width="3"/>
  <text x="238" y="84" fill="#F4F7F9" font-family="Arial, Helvetica, sans-serif" font-size="48" font-weight="800" letter-spacing="1">BMOZI</text>
  <text x="240" y="130" fill="#19D6C5" font-family="Arial, Helvetica, sans-serif" font-size="27" font-weight="700" letter-spacing="12">TECHNICAL</text>
</svg>
