<svg xmlns="http://www.w3.org/2000/svg" viewBox="0 0 256 256" role="img" aria-labelledby="title desc">
  <title id="title">BMOZI Technical mark</title>
  <desc id="desc">A geometric blue and magenta B mark for BMOZI Technical.</desc>
  <defs>
    <linearGradient id="bmozi-blue" x1="30" y1="32" x2="222" y2="224" gradientUnits="userSpaceOnUse">
      <stop offset="0" stop-color="#2E73F1"/>
      <stop offset=".48" stop-color="#2AA9FF"/>
      <stop offset="1" stop-color="#19D6C5"/>
    </linearGradient>
    <linearGradient id="bmozi-magenta" x1="88" y1="118" x2="196" y2="172" gradientUnits="userSpaceOnUse">
      <stop offset="0" stop-color="#FF4FD8"/>
      <stop offset=".72" stop-color="#D7379A"/>
      <stop offset="1" stop-color="#19D6C5"/>
    </linearGradient>
    <filter id="bmozi-glow" x="-18%" y="-18%" width="136%" height="136%">
      <feGaussianBlur stdDeviation="2.2" result="blur"/>
      <feColorMatrix in="blur" type="matrix" values="0 0 0 0 0.08 0 0 0 0 0.65 0 0 0 0 0.95 0 0 0 .38 0"/>
      <feMerge>
        <feMergeNode/>
        <feMergeNode in="SourceGraphic"/>
      </feMerge>
    </filter>
  </defs>
  <rect width="256" height="256" fill="#071019"/>
  <g filter="url(#bmozi-glow)">
    <path
      d="M42 57H147C190 57 221 86 221 125C221 162 192 190 151 190H82"
      fill="none"
      stroke="url(#bmozi-blue)"
      stroke-width="25"
      stroke-linecap="square"
      stroke-linejoin="round"
    />
    <path
      d="M51 110V216H151C196 216 224 187 224 151C224 116 195 91 154 91H82"
      fill="none"
      stroke="url(#bmozi-blue)"
      stroke-width="25"
      stroke-linecap="square"
      stroke-linejoin="round"
    />
    <path
      d="M87 131H151C174 131 188 144 188 161C188 179 172 190 149 190H87"
      fill="none"
      stroke="url(#bmozi-magenta)"
      stroke-width="25"
      stroke-linecap="square"
      stroke-linejoin="round"
    />
    <path
      d="M88 151H149C166 151 176 155 187 162"
      fill="none"
      stroke="#071019"
      stroke-width="23"
      stroke-linecap="round"
      opacity=".9"
    />
  </g>
</svg>
